<svg width="620" height="140" viewBox="0 0 620 140" fill="none" xmlns="http://www.w3.org/2000/svg">
  <defs>
    <linearGradient id="brandGradient" x1="0" y1="0" x2="1" y2="1">
      <stop offset="0%" stop-color="#7D8CF5"/>
      <stop offset="100%" stop-color="#C03A8A"/>
    </linearGradient>
    <filter id="softGlow" x="-20%" y="-20%" width="140%" height="140%">
      <feGaussianBlur stdDeviation="2.2" result="blur"/>
      <feMerge>
        <feMergeNode in="blur"/>
        <feMergeNode in="SourceGraphic"/>
      </feMerge>
    </filter>
  </defs>

  <g transform="translate(10 14)" filter="url(#softGlow)">
    <rect x="0" y="38" width="86" height="34" rx="17" fill="url(#brandGradient)"/>
    <rect x="26" y="12" width="34" height="86" rx="17" fill="url(#brandGradient)"/>
    <path d="M52 4C28 4 23 36 43 49L63 63C75 71 73 90 56 94C42 98 30 90 28 76" stroke="url(#brandGradient)" stroke-width="10" stroke-linecap="round"/>
    <path d="M34 106C58 106 63 74 43 61L23 47C11 39 13 20 30 16C44 12 56 20 58 34" stroke="url(#brandGradient)" stroke-width="10" stroke-linecap="round"/>
  </g>

  <text x="120" y="82" font-size="52" font-family="Georgia, Times New Roman, serif" letter-spacing="4" fill="url(#brandGradient)">
    SHAZZAR PHARMACY
  </text>
</svg>
